# Blender v2.56 (sub 0) OBJ File: '1.blend'
# www.blender.org
o Cube.007
v -0.075274 -0.164389 -0.114303
v -0.178448 0.684136 0.118554
v 0.673034 0.115279 0.283178
v -0.119409 0.057764 0.687923
v -0.801779 0.190483 -0.009647
v 0.063784 0.342447 -0.397760
v -0.141227 -0.252073 0.480083
v 0.575197 -0.032763 0.203808
v 0.058592 0.055381 -0.312829
v -0.583630 -0.087496 -0.081934
v 0.530127 0.296449 0.308519
v -0.103550 0.378496 0.663356
v -0.645018 0.419457 0.003962
v -0.023593 0.516632 -0.198850
v 0.522148 0.026705 0.569794
v 0.532429 0.223509 -0.150428
v -0.793998 0.146845 0.395578
v -0.566059 0.250522 -0.251496
v 0.444905 0.020142 -0.034603
v 0.410118 -0.203046 0.486589
v -0.638443 -0.135969 0.306173
v -0.457959 -0.083347 -0.235308
v 0.477569 0.431700 -0.077358
v 0.439125 0.223341 0.575386
v -0.678637 0.283499 0.376377
v -0.463221 0.445431 -0.194908
v -0.425276 -0.252670 0.049706
v -0.431134 -0.280587 0.230314
v -0.245437 -0.286840 0.244266
v -0.176974 -0.258801 0.088009
v -0.127108 0.723822 -0.082144
vt 0.000000 0.512695
vt 0.133789 0.516602
vt 0.125977 0.783203
vt 0.000000 1.000000
vt 1.000000 0.494141
vt 1.000000 1.000000
vt 0.807617 0.828125
vt 0.744141 0.487305
vt 0.000000 0.000000
vt 0.070312 0.138672
vt 0.439453 0.455078
vt 0.435547 0.277344
vt 0.545898 0.322266
vt 0.540039 0.499023
vt 0.542969 0.649414
vt 0.461914 0.707031
vt 0.429688 1.000000
vt 0.303711 0.772461
vt 0.361328 0.608398
vt 0.627930 0.790039
vt 0.644531 0.503906
vt 0.613281 0.140625
vt 0.771484 0.121094
vt 0.470703 0.000000
vt 1.000000 0.000000
vt 0.356445 0.345703
vt 0.323242 0.144531
vt 0.289062 0.500000
vt 0.334961 0.481445
vt 0.927734 0.263672
vt 0.862305 0.258789
vt 0.836914 0.422852
vt 0.927734 0.430664
vt 0.384766 0.459961
vn 0.212439 -0.891476 -0.400159
vn 0.170171 -0.612110 -0.772210
vn 0.546220 -0.580950 -0.603412
vn 0.597034 -0.759117 -0.259255
vn 0.456862 -0.818018 0.349345
vn 0.040132 -0.895505 0.443220
vn -0.501724 -0.725791 -0.470595
vn -0.312204 -0.493271 -0.811884
vn -0.058626 0.964080 0.258950
vn -0.662038 0.747673 -0.051637
vn -0.610706 0.595203 0.522233
vn -0.099765 0.578936 0.809198
vn 0.492965 0.509629 0.705130
vn 0.649220 0.705130 0.285073
vn 0.998016 -0.032441 0.053896
vn 0.779199 0.070589 -0.622761
vn 0.570666 0.736167 -0.363811
vn 0.585223 -0.171575 0.792474
vn -0.148564 -0.195166 0.969420
vn -0.823817 -0.071535 0.562304
vn -0.605304 -0.752342 0.259865
vn -0.923734 0.082675 -0.373943
vn -0.401685 0.643147 -0.651875
vn -0.489120 0.166967 -0.856075
vn 0.137608 0.177984 -0.974334
vn 0.101444 0.575518 -0.811457
vn -0.254128 -0.907498 -0.334391
vn -0.324412 -0.945494 0.027863
vn 0.094668 -0.992431 0.077883
vn 0.159917 -0.943907 -0.288797
vn 0.030030 0.868892 -0.494064
usemtl rock_diffuse
s 1
f 1/1/1 9/2/2 19/3/3 8/4/4
f 1/5/1 8/6/4 20/7/5 7/8/6
f 1/1/1 10/9/7 22/10/8 9/2/2
f 2/11/9 13/12/10 25/13/11 12/14/12
f 2/11/9 12/14/12 24/15/13 11/16/14
f 3/17/15 8/4/4 19/3/3 16/18/16
f 3/17/15 16/18/16 23/19/17 11/16/14
f 3/17/15 11/16/14 24/15/13 15/20/18
f 3/17/15 15/20/18 20/7/5 8/6/4
f 4/21/19 7/8/6 20/7/5 15/20/18
f 4/21/19 15/20/18 24/15/13 12/14/12
f 4/21/19 12/14/12 25/13/11 17/22/20
f 4/21/19 17/22/20 21/23/21 7/8/6
f 5/24/22 10/25/7 21/23/21 17/22/20
f 5/24/22 17/22/20 25/13/11 13/12/10
f 5/24/22 13/12/10 26/26/23 18/27/24
f 5/24/22 18/27/24 22/10/8 10/9/7
f 6/28/25 14/29/26 23/19/17 16/18/16
f 6/28/25 16/18/16 19/3/3 9/2/2
f 6/28/25 9/2/2 22/10/8 18/27/24
f 6/28/25 18/27/24 26/26/23 14/29/26
f 21/23/21 10/25/7 27/30/27 28/31/28
f 7/8/6 21/23/21 28/31/28 29/32/29
f 10/25/7 1/5/1 30/33/30 27/30/27
f 1/5/1 7/8/6 29/32/29 30/33/30
f 30/33/30 29/32/29 28/31/28 27/30/27
f 14/29/26 31/34/31 23/19/17
f 31/34/31 14/29/26 26/26/23
f 2/11/9 11/16/14 23/19/17 31/34/31
f 26/26/23 13/12/10 2/11/9 31/34/31
