# Blender v2.56 (sub 0) OBJ File: '1.blend'
# www.blender.org
o Cube.005
v -0.438921 -0.022752 -0.254845
v 0.765137 -0.240036 -0.282978
v -0.056436 -0.122109 -0.545261
v 0.565428 -0.079937 -0.061772
v -0.803510 -0.054504 0.002184
v -0.280226 0.016513 -0.316587
v -0.453815 0.261976 0.479680
v 0.362386 -0.008226 -0.407343
v -0.392200 -0.051489 0.607174
v -0.685454 -0.016643 0.710430
v -0.455670 -0.274787 0.294614
v -0.105729 0.193346 -0.431124
v 0.392004 0.006534 -0.675229
v -0.260465 -0.132106 -0.524906
v 0.199636 -0.014109 0.217638
v -0.377344 0.228614 -0.331167
v -0.326689 -0.185634 0.099117
v 0.330050 -0.192521 -0.255304
v 0.010364 0.302501 -0.041722
v 0.556920 0.198793 -0.186559
v -0.734035 0.212065 0.559322
v -0.820375 -0.197119 0.182843
v 0.343635 -0.100836 -0.030558
v -0.064985 -0.237662 -0.006126
v -0.710951 -0.285159 0.217622
v -0.328506 -0.267423 -0.234925
v -0.623606 -0.130027 -0.071001
v -0.023499 0.012317 0.348741
v 0.312170 0.198518 -0.020558
v 0.236618 0.283525 -0.200074
v -0.565764 0.310705 -0.065235
v 0.209256 0.069061 -0.684203
v 0.406094 -0.259364 -0.384981
v 0.073120 -0.196935 -0.475070
v 0.743086 0.107884 -0.361035
v -0.758888 0.282268 0.170777
v -0.193685 0.070186 0.403962
v -0.316910 0.246845 0.111239
v -0.776368 -0.187746 0.590238
v 0.431292 -0.232584 -0.763066
v 0.171908 -0.103365 -0.772403
vt 0.419865 0.661442
vt 0.370476 0.846281
vt 0.243335 0.789860
vt 0.559084 0.844664
vt 0.071128 0.568629
vt 0.148141 0.751662
vt 0.000000 0.742188
vt 0.179203 0.527231
vt 0.212556 0.383085
vt 0.366040 0.358147
vt 0.465820 0.000000
vt 0.412057 0.093052
vt 0.000000 0.000000
vt 0.266447 0.143483
vt 0.091641 0.098093
vt 0.093835 0.247270
vt 0.290204 0.583829
vt 0.425587 0.488031
vt 1.000000 0.740234
vt 0.841642 0.566213
vt 1.000000 0.483398
vt 0.865748 0.119354
vt 0.721680 0.000000
vt 1.000000 0.000000
vt 0.549727 0.164544
vt 0.677779 0.220945
vt 0.817444 0.426454
vt 0.747880 0.378894
vt 0.896053 0.353938
vt 1.000000 0.296875
vt 1.000000 1.000000
vt 0.637695 1.000000
vt 0.746272 0.874269
vt 0.768747 0.698929
vt 0.654510 0.738838
vt 0.622496 0.588724
vt 0.624553 0.469449
vt 0.736274 0.495551
vt 0.544723 0.444749
vt 0.556526 0.302048
vt 0.469824 0.299352
vt 0.313893 0.268618
vt 0.232619 0.306280
vt 0.000000 0.167969
vt 0.000000 1.000000
vt 0.185547 1.000000
vt 0.411133 1.000000
vn 0.163488 -0.914792 0.369304
vn 0.501541 -0.149205 0.852138
vn 0.466567 -0.018372 0.884274
vn 0.414441 -0.562883 0.715079
vn 0.560411 -0.210273 0.801050
vn 0.692587 -0.085269 0.716269
vn 0.351360 0.786340 0.508103
vn 0.267220 -0.944945 0.188757
vn -0.434126 -0.877773 -0.202429
vn -0.547319 -0.497665 -0.672842
vn 0.275552 0.935057 0.222968
vn -0.253456 0.948393 -0.190466
vn -0.721915 0.645466 -0.249306
vn -0.767510 0.552599 0.324839
vn -0.562944 -0.613117 0.554186
vn 0.420118 -0.856319 0.300272
vn -0.197668 -0.923765 -0.327891
vn 0.878506 -0.457900 0.136082
vn 0.443373 -0.518632 -0.731010
vn 0.787652 0.538438 -0.299387
vn 0.379192 0.911588 -0.158605
vn 0.246101 0.925535 0.287698
vn 0.455763 0.764275 0.456191
vn -0.398267 0.641346 -0.655751
vn -0.321268 0.580981 -0.747795
vn 0.561022 0.652577 -0.509293
vn -0.098697 0.607746 -0.787927
vn 0.442396 0.814844 -0.374493
vn 0.486648 0.849269 0.204627
vn 0.426893 -0.505905 0.749535
vn -0.039186 -0.972716 0.228614
vn 0.024079 -0.980987 0.192541
vn -0.088168 -0.985870 -0.142247
vn -0.517350 -0.324595 -0.791803
vn -0.349681 -0.076754 -0.933714
vn -0.611560 -0.186804 -0.768822
vn -0.600238 0.076968 -0.796075
vn -0.689749 -0.253365 -0.678243
vn -0.847987 -0.131382 -0.513443
vn -0.952147 -0.268563 -0.145848
vn -0.025788 -0.005524 0.999634
usemtl rock_diffuse
s 1
f 24/1/1 15/2/2 28/3/3
f 24/1/1 23/4/4 15/2/2
f 9/5/5 37/6/6 7/7/7
f 11/8/8 25/9/9 27/10/10
f 38/11/11 31/12/12 7/13/7
f 31/12/12 36/14/13 21/15/14
f 25/9/9 11/8/8 39/16/15
f 17/17/16 11/8/8 26/18/17
f 2/19/18 40/20/19 35/21/20
f 30/22/21 19/23/22 29/24/23
f 38/11/11 19/23/22 16/25/24 31/12/12
f 12/26/25 16/25/24 19/23/22 30/22/21
f 30/22/21 13/27/26 32/28/27 12/26/25
f 30/22/21 8/29/28 40/20/19 13/27/26
f 20/30/29 35/21/20 40/20/19 8/29/28
f 8/29/28 30/22/21 29/24/23 20/30/29
f 2/19/18 35/31/20 20/32/29 4/33/30
f 4/33/30 33/34/31 40/20/19 2/19/18
f 23/4/4 18/35/32 33/34/31 4/33/30
f 34/36/33 40/20/19 33/34/31 18/35/32
f 24/1/1 34/36/33 18/35/32 23/4/4
f 3/37/34 41/38/35 40/20/19 34/36/33
f 3/37/34 34/36/33 26/18/17 14/39/36
f 12/26/25 32/28/27 41/38/35 3/37/34
f 41/38/35 32/28/27 13/27/26 40/20/19
f 12/26/25 3/37/34 14/39/36 6/40/37
f 26/18/17 1/41/38 6/40/37 14/39/36
f 1/41/38 16/25/24 12/26/25 6/40/37
f 16/25/24 1/41/38 27/10/10 31/12/12
f 1/41/38 26/18/17 11/8/8 27/10/10
f 36/14/13 31/12/12 27/10/10 5/42/39
f 22/43/40 21/15/14 36/14/13 5/42/39
f 22/43/40 5/42/39 27/10/10 25/9/9
f 21/15/14 22/43/40 25/9/9 39/16/15
f 7/13/7 31/12/12 21/15/14 10/44/41
f 17/17/16 37/6/6 9/5/5 11/8/8
f 37/6/6 17/17/16 24/1/1 28/3/3
f 17/17/16 26/18/17 34/36/33 24/1/1
f 38/45/11 28/3/3 15/2/2 19/46/22
f 28/3/3 38/45/11 7/7/7 37/6/6
f 20/32/29 29/47/23 23/4/4 4/33/30
f 19/46/22 15/2/2 23/4/4 29/47/23
f 10/44/41 21/15/14 39/16/15
f 10/44/41 39/16/15 11/8/8
f 7/7/7 10/44/41 9/5/5
f 9/5/5 10/44/41 11/8/8
