# Blender v2.56 (sub 0) OBJ File: '1.blend'
# www.blender.org
o Cube.001_Cube.002
v -0.694863 0.237163 0.615422
v 0.165160 -0.329015 -0.251865
v -0.483245 0.634922 -0.384420
v 0.523000 -0.019523 0.343650
v -0.461570 0.349225 0.665566
v 0.165698 0.128598 -0.648324
v 0.566253 -0.404633 -0.146396
v -0.338728 0.088842 0.827452
v 0.716569 -0.259397 -0.123485
v -0.121606 0.718171 -0.204749
v 0.443049 -0.115750 -0.649904
v -0.522839 0.521436 0.183303
v -0.580742 0.054511 0.042020
v 0.687824 0.362484 -0.128251
v -0.358573 0.667261 -0.581249
v -0.673425 0.259292 -0.111726
v 0.219020 -0.050631 0.731181
v -0.823627 0.462982 -0.020190
v 0.274310 -0.308288 -0.696515
v 0.591364 0.310615 -0.400741
v -0.071910 0.480215 0.044986
v -0.384837 -0.251969 0.278741
v -0.761421 0.165393 -0.477439
v -0.131430 -0.198591 -0.389297
v -0.286577 0.064220 -0.840633
v 0.060972 0.570853 -0.690436
v -0.034850 0.440628 0.317886
v -0.760998 0.443222 0.465372
v -0.562176 0.325071 -0.787357
v 0.409319 -0.359073 0.290076
v 0.061152 -0.409955 0.386734
v 0.437548 0.435346 -0.207909
v -0.385523 -0.175738 -0.666553
v 0.473497 0.461813 -0.429423
v -0.499753 -0.005947 -0.378369
v -0.639024 0.463719 -0.574988
v -0.703263 0.064406 0.302165
v 0.049572 0.341631 0.561974
v 0.091843 -0.442929 -0.532620
v 0.595277 -0.386473 -0.493694
vt 0.892578 0.335938
vt 0.813477 0.473633
vt 0.780273 0.354492
vt 0.380859 0.453125
vt 0.421875 0.000000
vt 0.472656 0.400391
vt 0.482422 0.610352
vt 0.576172 0.453125
vt 0.873047 0.585938
vt 0.633789 0.698242
vt 0.085938 0.617188
vt 0.000000 0.807617
vt 0.000000 0.679688
vt 0.158203 0.443359
vt 0.087891 0.251953
vt 0.208984 0.187500
vt 0.351562 0.000000
vt 0.865234 0.799805
vt 0.721680 0.836914
vt 1.000000 0.493164
vt 0.368164 0.597656
vt 0.303711 0.532227
vt 0.173828 0.723633
vt 0.679688 0.420898
vt 0.682617 0.322266
vt 0.124023 1.000000
vt 0.286133 0.806641
vt 0.399414 1.000000
vt 0.440430 0.791016
vt 0.559570 1.000000
vt 0.692383 0.189453
vt 0.841797 0.176758
vt 0.715820 0.706055
vt 0.863281 1.000000
vt 0.684570 1.000000
vt 0.258789 0.634766
vt 0.257812 0.317383
vt 0.000000 0.000000
vt 0.497070 0.000000
vt 0.790039 0.000000
vt 1.000000 0.000000
vt 0.000000 0.308594
vt 0.546875 0.246094
vt 0.000000 0.580078
vt 1.000000 0.655273
vt 1.000000 0.829102
vt 1.000000 1.000000
vt 0.000000 1.000000
vt 0.080078 0.880859
vn 0.224464 -0.349590 -0.909604
vn 0.507523 0.080935 -0.857814
vn 0.678182 -0.567766 -0.466536
vn -0.308390 -0.329051 0.892514
vn -0.055727 -0.921476 0.384350
vn 0.446669 -0.067660 0.892117
vn 0.399335 0.729789 0.554888
vn 0.836482 -0.001770 0.547960
vn 0.328074 0.167638 -0.929624
vn 0.703909 0.666066 0.246651
vn -0.907590 -0.360912 -0.214484
vn -0.714225 0.510880 -0.478347
vn -0.449507 0.169378 -0.877041
vn -0.811090 -0.584765 0.011872
vn -0.688742 -0.719932 0.085452
vn -0.774957 -0.598010 -0.204413
vn -0.575304 -0.815912 0.057131
vn 0.242134 0.513718 -0.823054
vn 0.538560 0.743553 -0.396252
vn -0.053865 -0.190283 -0.980224
vn -0.009919 0.789880 0.613147
vn -0.712027 0.118259 0.692068
vn -0.995849 -0.000793 -0.090945
vn 0.949736 -0.310739 0.037294
vn 0.297159 -0.944029 0.143132
vn 0.181127 0.943175 0.278542
vn -0.059969 0.934385 0.351085
vn 0.233833 0.896451 0.376354
vn 0.143162 0.959166 0.243843
vn 0.348003 0.920255 0.178838
vn -0.302255 -0.938353 0.167669
vn -0.254006 -0.965728 -0.053011
vn 0.838099 0.377087 -0.394147
vn -0.598071 0.721122 0.349651
vn -0.839564 -0.536088 0.087619
vn -0.511856 -0.854244 0.090609
vn -0.563799 -0.789605 -0.242103
vn 0.481674 -0.782556 0.394421
vn -0.233833 0.925840 -0.296854
vn -0.392743 0.919553 0.012879
usemtl rock_normals
s 1
f 19/1/1 11/2/2 40/3/3
f 8/4/4 31/5/5 17/6/6
f 38/7/7 17/6/6 4/8/8
f 6/9/9 11/2/2 19/1/1
f 14/10/10 38/7/7 4/8/8
f 23/11/11 36/12/12 29/13/13
f 16/14/14 35/15/15 13/16/16
f 31/5/5 8/4/4 22/17/17
f 26/18/18 34/19/19 6/9/9
f 19/1/1 25/20/20 6/9/9
f 5/21/21 1/22/22 8/4/4
f 23/11/11 18/23/23 36/12/12
f 9/24/24 7/25/25 40/3/3
f 16/14/14 13/16/16 18/23/23
f 10/26/26 12/27/27 21/28/28
f 21/28/28 27/29/29 32/30/30
f 2/31/31 39/32/32 7/25/25
f 5/21/21 38/7/7 27/29/29
f 4/8/8 9/24/24 20/33/33 14/10/10
f 9/24/24 40/3/3 11/2/2 20/33/33
f 11/2/2 6/9/9 34/19/19 20/33/33
f 14/10/10 32/30/30 27/29/29 38/7/7
f 34/19/19 10/34/26 21/35/28 32/30/30
f 12/27/27 5/21/21 27/29/29 21/28/28
f 38/7/7 5/21/21 8/4/4 17/6/6
f 1/22/22 5/21/21 12/27/27 28/36/34
f 1/22/22 28/36/34 18/23/23 37/37/35
f 22/17/17 37/37/35 18/23/23 13/16/16
f 8/4/4 1/22/22 37/37/35 22/17/17
f 18/23/23 23/11/11 35/15/15 16/14/14
f 35/15/15 24/38/36 22/17/17 13/16/16
f 22/39/17 24/40/36 2/31/31 31/5/5
f 2/31/31 24/40/36 33/41/37 39/32/32
f 23/11/11 33/42/37 24/38/36 35/15/15
f 25/20/20 19/1/1 39/32/32 33/41/37
f 19/1/1 40/3/3 7/25/25 39/32/32
f 7/25/25 9/24/24 4/8/8 30/43/38
f 4/8/8 17/6/6 31/5/5 30/43/38
f 2/31/31 7/25/25 30/43/38 31/5/5
f 23/11/11 29/13/13 25/44/20 33/42/37
f 29/45/13 26/18/18 6/9/9 25/20/20
f 36/46/12 15/47/39 26/18/18 29/45/13
f 15/47/39 10/34/26 34/19/19 26/18/18
f 15/48/39 3/49/40 12/27/27 10/26/26
f 18/23/23 3/49/40 15/48/39 36/12/12
f 20/33/33 34/19/19 32/30/30 14/10/10
f 28/36/34 12/27/27 3/49/40 18/23/23
