# Blender v2.56 (sub 0) OBJ File: ''
# www.blender.org
o Mesh.002_cylinder14_cylind.001
v 0.040810 -0.128798 0.112597
v 0.040810 0.052823 0.112597
v 0.136774 -0.029731 0.086101
v 0.046036 -0.047861 0.405886
v -0.068348 -0.051601 0.139843
v 0.035583 -0.031859 -0.257458
v 0.044730 -0.110531 0.332563
v 0.112783 -0.096933 0.092725
v 0.036890 -0.105405 -0.184136
v -0.031164 -0.115258 0.132469
v 0.134147 0.052519 0.114712
v 0.037651 0.024214 0.400826
v -0.056886 0.017473 0.136185
v 0.033970 0.051122 -0.172801
v 0.114090 -0.033327 0.337528
v 0.151835 0.000213 -0.250137
v -0.044786 -0.076540 0.403163
v -0.037697 -0.034647 -0.139427
v 0.134436 -0.068144 -0.235534
v 0.095865 -0.084086 0.271853
v -0.008439 -0.101120 0.279217
v -0.016569 -0.087569 -0.024583
v 0.132739 0.050401 -0.174159
v 0.135578 0.030870 0.340455
v -0.050925 0.039825 0.314377
v -0.064764 -0.004850 -0.051353
v 0.189273 -0.007712 -0.590515
v 0.154204 -0.114733 -0.590515
v 0.041583 -0.114451 -0.590515
v 0.007050 -0.007256 -0.590515
v 0.098327 0.058713 -0.590515
v 0.251941 -0.002553 -0.487392
v 0.186056 -0.162397 -0.491433
v 0.144906 0.100086 -0.490344
v 0.166072 0.081398 -0.437736
v 0.092729 0.099180 -0.512574
v 0.040104 0.099308 -0.491405
v 0.001899 -0.161936 -0.491433
v -0.054570 0.013350 -0.491433
v 0.152653 -0.021067 -0.293440
v 0.104688 -0.027858 0.785057
v 0.088509 -0.059758 0.704259
v 0.104215 -0.107006 -0.298371
v 0.143828 0.082485 -0.385568
v 0.091203 0.082612 -0.364399
v 0.052439 0.054953 -0.298184
v 0.088557 0.010272 0.635006
v 0.039025 0.081707 -0.386629
v -0.046267 -0.003094 -0.299233
v -0.002268 -0.109074 -0.299141
v -0.013695 0.001921 0.766865
v 0.033697 0.013425 0.769269
v 0.017859 0.080298 -0.439236
v -0.035286 -0.028402 0.720283
v 0.040413 -0.072782 0.672792
v 0.034997 -0.028072 0.732842
v 0.090953 0.117436 -0.365231
v 0.038775 0.116531 -0.387461
v 0.165822 0.116222 -0.438569
v 0.143577 0.117309 -0.386400
v 0.092478 0.113907 -0.513406
v 0.144656 0.114813 -0.491176
v 0.017609 0.115122 -0.440068
v 0.039854 0.114035 -0.492237
v -0.058706 -0.031144 0.707962
v -0.037464 -0.031144 0.714713
v -0.038942 -0.027914 0.671565
v -0.060409 -0.027914 0.672897
v -0.078714 -0.031144 0.755333
v -0.060523 -0.031144 0.769305
v -0.060409 -0.049394 0.672897
v -0.058706 -0.052079 0.707962
v -0.076093 -0.017993 0.360120
v -0.076093 -0.039473 0.360120
v -0.054615 -0.017993 0.359004
v -0.037464 -0.052079 0.714713
v -0.038942 -0.049394 0.671565
v -0.060523 -0.052079 0.769305
v -0.078714 -0.052079 0.755333
v -0.054615 -0.039473 0.359004
v -0.090419 -0.014129 0.134514
v -0.090419 -0.043338 0.134514
v -0.061217 -0.014129 0.134514
v -0.061217 -0.043338 0.134514
v -0.091867 -0.011116 0.133204
v -0.099678 -0.029337 0.133204
v -0.092317 -0.047744 0.133204
v -0.091867 -0.011116 0.004183
v -0.099678 -0.029337 0.004183
v -0.055239 -0.011565 0.133204
v -0.055239 -0.011565 0.004183
v -0.073460 -0.003755 0.004183
v -0.073460 -0.003755 0.133204
v -0.055688 -0.048194 0.133204
v -0.055688 -0.048194 0.004183
v -0.047878 -0.029973 0.004183
v -0.047878 -0.029973 0.133204
v -0.092317 -0.047744 0.004183
v -0.074096 -0.055555 0.004183
v -0.074096 -0.055555 0.133204
v -0.059688 -0.015907 0.004183
v -0.087526 -0.015565 0.004183
v -0.060030 -0.043745 0.004183
v -0.087867 -0.043403 0.004183
v -0.059688 -0.015907 -0.060010
v -0.087526 -0.015565 -0.061696
v -0.060030 -0.043745 -0.060031
v -0.087867 -0.043403 -0.061717
v -0.072523 -0.018057 -0.175419
v -0.046396 -0.021097 -0.166298
v -0.073561 0.007308 -0.163991
v -0.047434 0.004268 -0.154870
v -0.038456 0.021166 -0.258862
v -0.012350 0.018102 -0.249688
v -0.039251 0.046811 -0.248029
v -0.013146 0.043746 -0.238855
v 0.020162 0.052145 -0.345078
v 0.045672 0.048479 -0.334404
v 0.019377 0.077800 -0.334273
v 0.044888 0.074135 -0.323599
v 0.059021 0.084325 -0.412957
v 0.083723 0.079990 -0.400871
v 0.057901 0.109703 -0.401566
v 0.082603 0.105368 -0.389480
v -0.013225 -0.062025 0.804702
v -0.060523 -0.052079 0.769305
v -0.060523 -0.031144 0.769305
v -0.078714 -0.031144 0.755333
v -0.078714 -0.052079 0.755333
v 0.017609 0.115122 -0.440068
v 0.038775 0.116531 -0.387461
v 0.090953 0.117436 -0.365231
v 0.143577 0.117309 -0.386400
v 0.165822 0.116222 -0.438569
v 0.144656 0.114813 -0.491176
v 0.092478 0.113907 -0.513406
v 0.039854 0.114035 -0.492237
v 0.144906 0.100086 -0.490344
v 0.166072 0.081398 -0.437736
v 0.143828 0.082485 -0.385568
v 0.091203 0.082612 -0.364399
v 0.039025 0.081707 -0.386629
v 0.017859 0.080298 -0.439236
v 0.040104 0.099308 -0.491405
v 0.092729 0.099180 -0.512574
v 0.088557 0.010272 0.635006
v 0.104688 -0.027858 0.785057
v 0.088509 -0.059758 0.704259
v 0.040413 -0.072782 0.672792
v -0.013225 -0.062025 0.804702
v -0.035286 -0.028402 0.720283
v -0.013695 0.001921 0.766865
v 0.033697 0.013425 0.769269
v -0.055239 -0.011565 0.004183
v -0.073460 -0.003755 0.004183
v -0.091867 -0.011116 0.004183
v -0.099678 -0.029337 0.004183
v -0.092317 -0.047744 0.004183
v -0.074096 -0.055555 0.004183
v -0.055688 -0.048194 0.004183
v -0.047878 -0.029973 0.004183
v -0.055239 -0.011565 0.133204
v -0.047878 -0.029973 0.133204
v -0.055688 -0.048194 0.133204
v -0.074096 -0.055555 0.133204
v -0.092317 -0.047744 0.133204
v -0.099678 -0.029337 0.133204
v -0.091867 -0.011116 0.133204
v -0.073460 -0.003755 0.133204
v -0.061217 -0.014129 0.134514
v -0.090419 -0.014129 0.134514
v -0.090419 -0.043338 0.134514
v -0.061217 -0.043338 0.134514
v -0.087526 -0.015565 0.004183
v -0.059688 -0.015907 0.004183
v -0.060030 -0.043745 0.004183
v -0.087867 -0.043403 0.004183
vt 0.525344 0.550744
vt 0.561930 0.659978
vt 0.485550 0.679552
vt 0.465639 0.556248
vt 0.468787 0.490760
vt 0.514127 0.471788
vt 0.559725 0.493306
vt 0.577394 0.545529
vt 0.592817 0.601485
vt 0.764033 0.561984
vt 0.836856 0.566064
vt 0.842329 0.670784
vt 0.763378 0.665387
vt 0.670323 0.614833
vt 0.683473 0.548290
vt 0.688751 0.484030
vt 0.758989 0.456654
vt 0.837880 0.484267
vt 0.902171 0.579880
vt 0.958382 0.579871
vt 0.941914 0.699315
vt 0.885888 0.701553
vt 0.892605 0.487368
vt 0.940571 0.512914
vt 0.100800 0.522923
vt 0.091425 0.465941
vt 0.142183 0.441801
vt 0.153560 0.497745
vt 0.184783 0.528954
vt 0.118169 0.563574
vt 0.062031 0.618782
vt 0.044049 0.528086
vt 0.047801 0.441801
vt 0.630419 0.544727
vt 0.586054 0.448492
vt 0.643525 0.645741
vt 0.236659 0.698767
vt 0.229234 0.641826
vt 0.284885 0.643292
vt 0.295090 0.694723
vt 0.274070 0.733983
vt 0.207103 0.738833
vt 0.106850 0.724050
vt 0.171167 0.682120
vt 0.128516 0.641826
vt 0.954686 0.115916
vt 0.892960 0.106352
vt 0.896848 0.014229
vt 0.963313 0.044373
vt 0.887604 0.170565
vt 0.860277 0.156541
vt 0.946816 0.190859
vt 0.900965 0.187424
vt 0.937744 0.266031
vt 0.882295 0.201979
vt 0.943856 0.340174
vt 0.881848 0.350224
vt 0.873776 0.260387
vt 0.964635 0.411663
vt 0.900785 0.452195
vt 0.767542 0.101961
vt 0.015316 0.144242
vt 0.015234 0.083799
vt 0.766082 0.034391
vt 0.830002 0.158252
vt 0.811191 0.178603
vt 0.768424 0.189399
vt 0.016921 0.206051
vt 0.821476 0.200018
vt 0.768303 0.267795
vt 0.770219 0.345119
vt 0.021638 0.338689
vt 0.019322 0.272245
vt 0.851369 0.209894
vt 0.770851 0.417075
vt 0.021423 0.368323
vt 0.021208 0.397957
vt 0.021315 0.383140
vt 0.016835 0.147521
vt 0.497665 0.759479
vt 0.497155 0.715667
vt 0.533693 0.714040
vt 0.534199 0.757860
vt 0.716829 0.763452
vt 0.718218 0.718692
vt 0.755579 0.723144
vt 0.754171 0.767936
vt 0.643627 0.730239
vt 0.643779 0.711460
vt 0.680891 0.714385
vt 0.680671 0.733288
vt 0.570741 0.756278
vt 0.570252 0.712421
vt 0.606885 0.710863
vt 0.606803 0.729520
vt 0.792945 0.727633
vt 0.791532 0.772433
vt 0.908629 0.820723
vt 0.910218 0.844973
vt 0.882164 0.842918
vt 0.882259 0.817492
vt 0.944629 0.816878
vt 0.949679 0.842139
vt 0.883376 0.918861
vt 0.883582 0.893399
vt 0.909138 0.890572
vt 0.908793 0.915469
vt 0.658820 0.925353
vt 0.658561 0.900176
vt 0.657662 0.849620
vt 0.657714 0.824416
vt 0.910752 0.866532
vt 0.882939 0.868073
vt 0.950064 0.866442
vt 0.945745 0.892296
vt 0.945391 0.916937
vt 0.658134 0.874873
vt 0.151100 0.584029
vt 0.151100 0.618040
vt 0.113836 0.618040
vt 0.113836 0.584029
vt 0.502030 0.944827
vt 0.501101 0.912822
vt 0.500597 0.845815
vt 0.500736 0.813928
vt 0.501154 0.879799
vt 0.500641 0.947583
vt 0.431671 0.952670
vt 0.431663 0.934920
vt 0.498606 0.929350
vt 0.497661 0.849259
vt 0.429503 0.850303
vt 0.429809 0.833368
vt 0.496833 0.831483
vt 0.496665 0.880016
vt 0.429376 0.884074
vt 0.430112 0.866708
vt 0.496469 0.864643
vt 0.498033 0.911994
vt 0.430520 0.918033
vt 0.431055 0.900918
vt 0.496748 0.895641
vt 0.429194 0.815855
vt 0.497668 0.813821
vt 0.425015 0.851039
vt 0.374678 0.850619
vt 0.375564 0.813604
vt 0.425141 0.818155
vt 0.426315 0.884139
vt 0.377844 0.886650
vt 0.427097 0.916738
vt 0.379131 0.921602
vt 0.427482 0.950472
vt 0.377324 0.956865
vt 0.286652 0.928632
vt 0.288405 0.890692
vt 0.290574 0.966130
vt 0.290837 0.850559
vt 0.288727 0.810586
vt 0.201713 0.936081
vt 0.198150 0.892941
vt 0.203379 0.978352
vt 0.198387 0.848505
vt 0.201329 0.805877
vt 0.099333 0.938701
vt 0.095686 0.896050
vt 0.100739 0.982467
vt 0.095806 0.853128
vt 0.098482 0.809498
vt 0.017125 0.944300
vt 0.015849 0.899011
vt 0.018532 0.989414
vt 0.015868 0.853593
vt 0.016102 0.808367
vt 0.021369 0.375731
vt 0.017636 0.179383
vt 0.018436 0.211244
vt 0.445429 0.763691
vt 0.392710 0.786166
vt 0.339539 0.764781
vt 0.317064 0.712062
vt 0.466814 0.710520
vt 0.338449 0.658891
vt 0.444339 0.657801
vt 0.391168 0.636416
vt 0.348181 0.527350
vt 0.327278 0.591142
vt 0.260148 0.590973
vt 0.239564 0.527078
vt 0.293972 0.487756
vn 0.061586 -0.998077 0.001251
vn -0.235115 -0.885861 -0.399915
vn 0.553789 -0.741844 -0.378094
vn 0.736717 -0.675130 0.037111
vn 0.722343 -0.659536 0.207831
vn 0.245643 -0.929807 0.273965
vn -0.340495 -0.918638 0.200354
vn -0.564989 -0.824732 -0.023652
vn -0.678274 -0.708640 -0.194250
vn -0.139775 0.989990 0.018494
vn 0.702750 0.709250 0.055086
vn 0.411145 0.866421 -0.283242
vn -0.363231 0.877499 -0.313028
vn -0.851650 0.484817 -0.199042
vn -0.810175 0.586138 0.000641
vn -0.673605 0.625477 0.393628
vn 0.023560 0.803186 0.595233
vn 0.793725 0.402570 0.455977
vn 0.984588 -0.168249 0.047212
vn 0.788965 0.036927 -0.613300
vn 0.873348 -0.323313 0.364299
vn 0.287362 -0.428724 0.856471
vn -0.773675 -0.415662 0.478133
vn -0.939146 -0.343089 -0.015564
vn -0.939421 -0.219916 -0.262795
vn -0.583758 0.041627 -0.810816
vn 0.399823 0.234382 -0.886074
vn 0.988556 0.148473 0.025971
vn 0.540391 -0.838923 -0.064272
vn 0.348064 -0.505905 -0.789209
vn 0.551134 0.727775 -0.408094
vn 0.774163 0.629810 0.062777
vn 0.003327 0.585955 -0.810297
vn 0.004669 0.816095 -0.577868
vn -0.468062 0.286111 -0.836085
vn -0.526627 0.718802 -0.453810
vn -0.260445 -0.361888 -0.895077
vn -0.573962 -0.796716 -0.189123
vn -0.947142 0.249855 -0.201147
vn 0.889523 0.324931 0.321146
vn 0.998901 0.012635 0.045015
vn 0.537034 -0.842433 0.043397
vn 0.514878 -0.827754 0.222907
vn 0.601947 0.591479 0.536424
vn 0.007050 0.850093 0.526536
vn 0.078982 0.968780 0.234931
vn 0.572832 0.818934 0.034486
vn -0.539537 0.810755 0.226966
vn -0.856410 0.500015 0.128483
vn -0.571306 -0.816248 0.085391
vn -0.886685 0.462081 0.015503
vn -0.142766 0.989257 0.031068
vn -0.670644 0.732231 -0.118442
vn -0.936430 -0.350688 0.010376
vn -0.004456 -0.999115 0.041322
vn -0.597095 0.094485 0.796564
vn 0.234443 -0.455824 0.858608
vn -0.232215 -0.837855 0.494003
vn 0.602954 0.573260 0.554765
vn 0.565172 -0.534135 0.628681
vn 0.010956 -0.742241 0.670003
vn 0.403088 -0.716239 0.569628
vn -0.010285 0.023804 0.999634
vn -0.714316 0.011567 0.699698
vn 0.999908 0.006897 0.009827
vn 0.699759 0.022065 0.714011
vn 0.010559 -0.056215 -0.998352
vn 0.714194 -0.026185 -0.699423
vn -0.999847 -0.010987 -0.012024
vn -0.698080 -0.043886 -0.714621
vn -0.692129 0.715781 -0.092441
vn 0.682760 0.713675 0.156407
vn 0.705893 0.708213 0.010620
vn -0.706900 0.703299 0.075014
vn -0.651357 0.707083 -0.275124
vn 0.651357 0.707083 0.275124
vn -0.705954 -0.708243 -0.000641
vn -0.683859 -0.714743 -0.146489
vn -0.705069 0.706778 0.057344
vn -0.706442 -0.706870 0.034974
vn 0.707266 0.706839 -0.010834
vn 0.691031 -0.715476 0.102420
vn 0.706992 -0.704184 -0.065157
vn 0.651357 -0.707083 0.275124
vn -0.651357 -0.707083 -0.275124
vn 0.706259 -0.707144 -0.033204
vn -0.609088 0.000000 0.793085
vn -0.705161 0.706748 0.056917
vn -0.705161 -0.706748 0.056917
vn 0.707083 0.707022 -0.008637
vn 0.707083 -0.707022 -0.008637
vn -0.698355 0.715720 0.000000
vn -0.999908 0.012268 0.000000
vn 0.715720 0.698355 0.000000
vn 0.012268 0.999908 0.000000
vn 0.698355 -0.715720 0.000000
vn 0.999908 -0.012268 0.000000
vn -0.715720 -0.698355 0.000000
vn -0.012268 -0.999908 0.000000
vn 0.714591 0.689108 0.120243
vn -0.699088 0.714377 0.030091
vn 0.699423 -0.713950 -0.032319
vn -0.714499 -0.688803 -0.122471
vn -0.677725 -0.625263 -0.386883
vn 0.694693 -0.716666 -0.061403
vn -0.694388 0.717124 0.059206
vn 0.678243 0.625965 0.384838
vn -0.616169 -0.551927 -0.561846
vn 0.645772 -0.762810 0.032594
vn -0.646382 0.762352 -0.031648
vn 0.615589 0.551561 0.562853
vn -0.597095 -0.535874 -0.596881
vn 0.626392 -0.776299 0.070132
vn -0.627064 0.775872 -0.069185
vn 0.596484 0.535478 0.597858
vn -0.598956 -0.534471 -0.596271
vn 0.655812 -0.754662 0.017670
vn -0.655843 0.754662 -0.017670
vn 0.598956 0.534471 0.596271
vn -0.529832 -0.847499 0.030854
vn -0.175329 0.109439 0.978393
vn 0.639027 0.434980 0.634358
vn 0.000000 0.000000 -1.000000
vn -0.085757 -0.173528 0.981079
vn 0.000000 0.000000 1.000000
vn 0.055818 -0.113163 0.992004
vn 0.066561 -0.156865 0.985351
vn -0.160619 -0.141789 0.976775
vn 0.150395 0.000244 0.988617
vn 0.073275 0.234535 0.969329
vn 0.064455 0.176885 0.982086
vn -0.108371 0.265419 0.958007
vn -0.193854 0.199469 0.960509
vn -0.304270 0.016327 0.952422
vn -0.007172 0.999664 -0.023865
usemtl garb_diffuse
s 1
f 1/1/1 9/2/2 19/3/3 8/4/4
f 1/1/1 8/4/4 20/5/5 7/6/6
f 1/1/1 7/6/6 21/7/7 10/8/8
f 1/1/1 10/8/8 22/9/9 9/2/2
f 2/10/10 11/11/11 23/12/12 14/13/13
f 26/14/14 13/15/15 2/10/10 14/13/13
f 2/10/10 13/15/15 25/16/16 12/17/17
f 2/10/10 12/17/17 24/18/18 11/11/11
f 3/19/19 8/20/4 19/21/3 16/22/20
f 3/19/19 16/22/20 23/12/12 11/11/11
f 3/19/19 11/11/11 24/18/18 15/23/21
f 3/19/19 15/23/21 20/24/5 8/20/4
f 4/25/22 7/26/6 20/27/5 15/28/21
f 4/25/22 15/28/21 24/29/18 12/30/17
f 4/25/22 12/30/17 25/31/16 17/32/23
f 4/25/22 17/32/23 21/33/7 7/26/6
f 5/34/24 10/8/8 21/7/7 17/35/23
f 5/34/24 17/35/23 25/16/16 13/15/15
f 26/14/14 18/36/25 5/34/24 13/15/15
f 5/34/24 18/36/25 22/9/9 10/8/8
f 6/37/26 14/38/13 23/39/12 16/40/20
f 6/37/26 16/40/20 19/41/3 9/42/2
f 6/37/26 9/42/2 22/43/9 18/44/25
f 26/45/14 14/38/13 6/37/26 18/44/25
f 27/46/27 32/47/28 33/48/29 28/49/30
f 27/46/27 34/50/31 35/51/32 32/47/28
f 34/50/31 27/46/27 31/52/33 36/53/34
f 30/54/35 37/55/36 36/53/34 31/52/33
f 29/56/37 38/57/38 39/58/39 30/54/35
f 28/59/30 33/60/29 38/57/38 29/56/37
f 40/61/40 41/62/41 42/63/42 43/64/43
f 40/61/40 44/65/44 45/66/45 46/67/46
f 46/67/46 47/68/47 40/61/40
f 46/67/46 45/66/45 48/69/48 49/70/49
f 49/70/49 39/58/39 38/57/38 50/71/50
f 49/70/49 51/72/51 52/73/52 46/67/46
f 49/70/49 48/69/48 53/74/53 39/58/39
f 50/71/50 38/57/38 33/60/29 43/75/43
f 50/71/50 54/76/54 51/72/51 49/70/49
f 43/64/43 33/48/29 32/47/28 40/61/40
f 43/75/43 42/77/42 149/78/55 50/71/50
f 39/58/39 53/74/53 37/55/36 30/54/35
f 32/47/28 35/51/32 44/65/44 40/61/40
f 41/62/41 40/61/40 47/68/47
f 147/62/56 56/63/57 148/62/58
f 47/68/47 46/67/46 52/73/52
f 146/68/59 56/62/57 147/68/56
f 153/73/60 56/68/57 146/73/59
f 152/72/61 56/73/57 153/72/60
f 148/77/58 56/79/57 55/77/62
f 141/80/63 57/81/63 58/82/64 142/83/64
f 139/84/65 59/85/65 60/86/66 140/87/66
f 145/88/67 61/89/67 62/90/68 138/91/68
f 143/92/69 63/93/69 64/94/70 144/95/70
f 142/83/64 58/82/64 63/93/69 143/92/69
f 140/87/66 60/86/66 57/96/63 141/97/63
f 138/91/68 62/90/68 59/85/65 139/84/65
f 144/95/70 64/94/70 61/89/67 145/88/67
f 65/98/71 66/99/72 67/100/73 68/101/74
f 65/98/71 69/102/75 70/103/76 66/99/72
f 68/104/74 71/105/77 72/106/78 65/107/71
f 68/104/74 73/108/79 74/109/80 71/105/77
f 67/100/73 75/110/81 73/111/79 68/101/74
f 66/99/72 76/112/82 77/113/83 67/100/73
f 66/99/72 70/103/76 78/114/84 76/112/82
f 72/106/78 79/115/85 69/116/75 65/107/71
f 71/105/77 77/113/83 76/112/82 72/106/78
f 71/105/77 74/109/80 80/117/86 77/113/83
f 77/113/83 80/117/86 75/110/81 67/100/73
f 76/112/82 78/114/84 79/115/85 72/106/78
f 128/118/87 129/119/87 126/120/87 127/121/87
f 73/108/79 81/122/88 82/123/89 74/109/80
f 75/110/81 83/124/90 81/125/88 73/111/79
f 80/117/86 84/126/91 83/124/90 75/110/81
f 74/109/80 82/123/89 84/126/91 80/117/86
f 85/127/92 88/128/92 89/129/93 86/130/93
f 90/131/94 91/132/94 92/133/95 93/134/95
f 94/135/96 95/136/96 96/137/97 97/138/97
f 87/139/98 98/140/98 99/141/99 100/142/99
f 93/134/95 92/133/95 88/143/92 85/144/92
f 97/138/97 96/137/97 91/132/94 90/131/94
f 100/142/99 99/141/99 95/136/96 94/135/96
f 86/130/93 89/129/93 98/140/98 87/139/98
f 101/145/94 105/146/100 106/147/101 102/148/92
f 103/149/96 107/150/102 105/146/100 101/145/94
f 104/151/98 108/152/103 107/150/102 103/149/96
f 102/153/92 106/154/101 108/152/103 104/151/98
f 108/152/103 109/155/104 110/156/105 107/150/102
f 106/154/101 111/157/106 109/155/104 108/152/103
f 105/146/100 112/158/107 111/159/106 106/147/101
f 107/150/102 110/156/105 112/158/107 105/146/100
f 109/155/104 113/160/108 114/161/109 110/156/105
f 111/157/106 115/162/110 113/160/108 109/155/104
f 112/158/107 116/163/111 115/164/110 111/159/106
f 110/156/105 114/161/109 116/163/111 112/158/107
f 113/160/108 117/165/112 118/166/113 114/161/109
f 115/162/110 119/167/114 117/165/112 113/160/108
f 116/163/111 120/168/115 119/169/114 115/164/110
f 114/161/109 118/166/113 120/168/115 116/163/111
f 117/165/112 121/170/116 122/171/117 118/166/113
f 119/167/114 123/172/118 121/170/116 117/165/112
f 120/168/115 124/173/119 123/174/118 119/169/114
f 118/166/113 122/171/117 124/173/119 120/168/115
f 54/76/54 50/71/50 125/175/120
f 151/76/121 56/72/57 152/76/61
f 55/78/62 56/176/57 150/78/122
f 125/175/120 50/71/50 149/78/55
f 150/175/122 56/177/57 151/175/121
f 177/151/123 158/140/123 157/129/123
f 174/153/123 177/151/123 157/129/123
f 174/153/123 157/129/123 156/128/123
f 160/136/123 159/141/123 158/140/123
f 176/149/123 160/136/123 158/140/123
f 176/149/123 158/140/123 177/151/123
f 161/137/123 160/136/123 176/149/123
f 161/137/123 176/149/123 175/145/123
f 154/132/123 161/137/123 175/145/123
f 154/132/123 175/145/123 174/148/123
f 154/132/123 174/148/123 156/143/123
f 155/133/123 154/132/123 156/143/123
f 166/139/124 165/142/125 164/135/126
f 166/139/124 164/135/126 173/126/127
f 172/123/128 166/139/124 173/126/127
f 173/126/127 164/135/126 163/138/129
f 170/124/130 173/126/127 163/138/129
f 170/124/130 163/138/129 162/131/131
f 168/144/132 171/125/133 170/124/130
f 168/144/132 170/124/130 162/131/131
f 168/144/132 162/131/131 169/134/125
f 167/130/134 166/139/124 172/123/128
f 167/130/134 172/123/128 171/122/133
f 168/127/132 167/130/134 171/122/133
f 135/178/135 136/179/135 137/180/135
f 135/178/135 137/180/135 130/181/135
f 134/182/135 135/178/135 130/181/135
f 134/182/135 130/181/135 131/183/135
f 133/184/135 134/182/135 131/183/135
f 133/184/135 131/183/135 132/185/135
f 27/186/27 28/187/30 29/188/37
f 27/186/27 29/188/37 30/189/35
f 31/190/33 27/186/27 30/189/35
