# Blender v2.56 (sub 0) OBJ File: '1.blend'
# www.blender.org
o Cube.003
v -0.320904 0.032017 -0.342509
v 0.300982 -0.252544 0.585740
v -0.196135 0.150604 0.059544
v 0.092542 -0.011625 -0.706864
v -0.146617 -0.495658 -0.065198
v 0.054585 0.234853 0.640397
v -0.049980 0.226780 0.452088
v 0.423410 0.001023 -0.169809
v -0.357128 -0.254499 0.678299
v 0.376144 -0.024592 -0.462492
v 0.282031 -0.328106 0.303762
v 0.391900 0.101347 0.229307
v -0.168834 -0.074305 0.794453
v -0.212433 -0.282278 0.669632
v 0.459168 -0.168393 0.082484
v 0.600327 0.102053 0.433115
v 0.531654 -0.318385 0.030517
v -0.490670 -0.395884 0.443191
v 0.575454 -0.241664 -0.123418
v 0.108448 0.253139 0.051936
v -0.290480 -0.397490 -0.288930
v -0.439696 -0.238627 0.035231
v 0.413729 0.021358 0.705466
v 0.063921 0.291766 -0.313970
v 0.445404 -0.486262 0.099418
v 0.135707 0.292213 0.360365
v 0.216930 -0.426389 0.409845
v 0.066539 -0.527632 -0.209171
v -0.089934 0.163558 0.721945
v 0.415139 -0.338424 0.278554
v -0.310842 -0.273012 -0.608659
v -0.054297 -0.172072 0.645698
v -0.218741 0.189267 0.630887
v 0.133937 -0.594395 0.121996
v -0.003197 -0.312889 -0.370704
v 0.530968 -0.290532 0.284533
v -0.344250 -0.215738 0.396114
v -0.260155 -0.004050 0.101552
v 0.339772 0.174901 0.611778
v 0.309751 0.219024 0.220992
v 0.154192 -0.331505 -0.232731
v -0.437261 -0.403184 0.082394
v -0.304896 0.211557 -0.229089
v 0.208381 0.114803 -0.508742
v -0.436285 -0.111710 -0.233263
v 0.716409 -0.174015 0.476626
v -0.437538 -0.324133 -0.272806
v 0.343027 0.210746 0.008541
v -0.178218 -0.125316 -0.658702
v 0.047835 -0.425287 -0.358378
v 0.482837 -0.461989 -0.359070
v -0.165660 -0.591228 0.226694
v 0.016453 0.168763 0.252464
v -0.126042 0.151135 -0.355592
v -0.186416 0.131485 0.353641
v -0.177076 0.069518 -0.570311
v -0.352742 -0.012625 0.632677
v -0.109227 -0.513470 0.421414
v 0.433525 -0.195853 0.737395
v 0.431957 -0.292410 -0.467162
v -0.224735 -0.484877 0.103120
v -0.472621 -0.160693 -0.574917
v 0.287631 0.209193 -0.301821
v 0.012557 -0.391689 0.425310
v 0.282708 0.136910 -0.089158
v -0.324760 -0.522593 0.408750
v 0.237633 -0.251018 -0.488265
vt 0.677734 0.326172
vt 0.759766 0.626953
vt 0.664062 0.612305
vt 0.784180 0.296875
vt 0.760742 0.125000
vt 0.890625 0.208984
vt 0.175781 0.079102
vt 0.187500 0.330078
vt 0.112305 0.153320
vt 0.391602 0.967773
vt 0.544922 0.934570
vt 0.781250 1.000000
vt 0.212891 0.768555
vt 0.316406 0.768555
vt 0.259766 0.808594
vt 0.480469 0.781250
vt 0.566406 0.790039
vt 0.039062 0.401367
vt 0.000000 0.659180
vt 0.000000 0.425781
vt 0.515625 0.451172
vt 0.382812 0.728516
vt 0.000000 1.000000
vt 0.940430 0.362305
vt 1.000000 0.304688
vt 0.498047 0.294922
vt 0.405273 0.118164
vt 0.520508 0.153320
vt 0.370117 0.280273
vt 0.323242 0.163086
vt 0.331055 0.662109
vt 0.635742 0.131836
vt 0.495117 0.000000
vt 0.101562 0.568359
vt 0.147461 0.784180
vt 0.061523 0.795898
vt 0.404297 0.921875
vt 0.153320 0.360352
vt 0.201172 0.557617
vt 0.280273 0.345703
vt 0.226562 0.452148
vt 0.294922 0.445312
vt 1.000000 0.935547
vt 0.917969 0.873047
vt 1.000000 0.821289
vt 0.000000 0.182617
vt 0.041016 0.216797
vt 0.605469 0.246094
vt 0.175781 0.923828
vt 0.916016 0.096680
vt 1.000000 0.039062
vt 1.000000 0.147461
vt 0.810547 0.417969
vt 0.812500 0.603516
vt 1.000000 0.000000
vt 0.259766 0.050781
vt 0.267578 0.000000
vt 0.000000 0.000000
vt 0.409180 0.269531
vt 0.426758 0.321289
vt 0.410156 0.450195
vt 0.093750 0.207031
vt 0.911133 0.615234
vt 0.893555 0.427734
vt 0.970703 0.517578
vt 0.847656 0.360352
vt 0.572266 0.359375
vt 0.575195 0.641602
vt 0.676758 0.845703
vt 0.767578 0.805664
vt 0.836914 0.854492
vt 0.272461 0.906250
vt 0.000000 0.810547
vt 1.000000 1.000000
vn 0.161565 -0.528214 -0.833552
vn 0.261635 0.224677 -0.938627
vn 0.729698 0.275094 -0.625935
vn -0.067995 -0.556413 -0.828089
vn 0.068056 -0.692068 -0.718589
vn -0.349925 -0.852107 -0.389141
vn 0.131596 -0.836360 0.532121
vn 0.120151 -0.655354 0.745659
vn -0.302499 -0.889950 0.341227
vn -0.093539 0.985137 0.143986
vn 0.649739 0.759789 -0.022828
vn -0.035676 0.974853 -0.219886
vn -0.175207 0.763848 0.621113
vn 0.429701 0.783746 0.448378
vn 0.078219 0.903836 0.420576
vn 0.811548 0.545701 -0.208686
vn 0.901303 0.407605 -0.146489
vn -0.903714 0.427778 0.016602
vn -0.850154 0.508072 0.138005
vn -0.981842 -0.156224 -0.107547
vn 0.935575 0.289438 -0.202155
vn 0.761101 0.647969 -0.028993
vn -0.335978 0.940611 -0.048585
vn -0.940580 -0.336833 0.042238
vn 0.964324 -0.207434 0.164251
vn 0.652058 -0.662099 0.369304
vn 0.597400 -0.685537 -0.416059
vn 0.713645 -0.543352 0.442061
vn 0.552171 -0.614246 0.563677
vn 0.399884 0.269845 0.875912
vn 0.287210 -0.712455 -0.640217
vn 0.042055 -0.869961 -0.491256
vn -0.869747 0.413099 0.269845
vn -0.624226 0.751274 0.214240
vn -0.615589 0.774560 -0.145146
vn 0.394299 0.918790 -0.018281
vn -0.556688 -0.260811 0.788690
vn -0.174749 0.010529 0.984527
vn 0.244819 -0.883328 0.399701
vn 0.120273 -0.637135 0.761284
vn 0.268563 -0.609455 0.745903
vn -0.557756 0.792810 0.245552
vn -0.693899 0.719993 0.007752
vn -0.502335 -0.803735 -0.318796
vn -0.733604 -0.387432 -0.558275
vn 0.545183 -0.307901 -0.779687
vn -0.318430 0.925657 -0.204199
vn -0.459761 -0.854152 -0.242927
vn -0.247841 -0.968719 0.009888
vn -0.088778 -0.304025 -0.948485
vn -0.338755 0.642598 -0.687216
vn 0.142613 -0.976135 0.163610
vn 0.243904 -0.754204 0.609638
vn 0.677023 -0.649525 0.345988
vn 0.737266 -0.675344 0.017335
vn 0.931059 -0.309610 0.192907
vn -0.932951 -0.299387 0.199805
vn -0.782891 0.583178 -0.216651
vn -0.837123 0.194250 -0.511307
vn -0.931242 0.344066 0.119816
vn -0.229835 -0.601154 -0.765343
vn 0.971526 0.224555 -0.075472
vn 0.883480 0.468001 -0.020020
vn 0.582232 0.712424 -0.391644
vn 0.198004 0.771203 -0.604968
vn -0.251747 0.793908 -0.553423
vn -0.116886 0.989349 -0.086489
usemtl rock_diffuse
s 1
f 67/1/1 4/2/2 10/3/3
f 35/4/4 67/1/1 50/5/5
f 50/5/5 21/6/6 35/4/4
f 58/7/7 14/8/8 66/9/9
f 20/10/10 48/11/11 24/12/12
f 29/13/13 39/14/14 6/15/15
f 12/16/16 65/17/17 48/11/11
f 37/18/18 38/19/19 22/20/20
f 15/21/21 12/16/16 16/22/22
f 20/10/10 24/12/12 53/23/23
f 47/24/24 21/6/6 22/25/20
f 17/26/25 25/27/26 51/28/27
f 25/27/26 11/29/28 27/30/29
f 16/22/22 39/14/14 23/31/30
f 41/32/31 28/33/32 50/5/5
f 57/34/33 33/35/34 55/36/35
f 48/11/11 40/37/36 12/16/16
f 9/38/37 13/39/38 57/34/33
f 2/40/39 27/30/29 11/29/28
f 32/41/40 2/40/39 59/42/41
f 3/43/42 43/44/43 38/45/19
f 22/20/20 61/46/44 42/47/45
f 67/1/1 10/3/3 60/48/46
f 53/23/23 55/36/35 7/49/47
f 5/50/48 52/51/49 61/52/44
f 16/22/22 12/16/16 39/14/14
f 49/53/50 56/54/51 4/2/2
f 40/37/36 39/14/14 12/16/16
f 52/51/49 5/50/48 28/33/32 34/55/52
f 25/27/26 27/30/29 64/56/53 34/57/52
f 52/58/49 34/57/52 64/56/53 58/7/7
f 58/7/7 64/56/53 32/41/40 14/8/8
f 64/56/53 27/30/29 2/40/39 32/41/40
f 17/26/25 30/59/54 11/29/28 25/27/26
f 36/60/55 30/59/54 17/26/25 15/21/21
f 59/42/41 2/40/39 36/60/55 46/61/56
f 13/39/38 32/41/40 59/42/41 23/31/30
f 9/38/37 14/8/8 32/41/40 13/39/38
f 14/8/8 9/38/37 18/62/57 66/9/9
f 61/46/44 52/58/49 58/7/7 66/9/9
f 42/47/45 61/46/44 66/9/9 18/62/57
f 61/52/44 22/25/20 21/6/6 5/50/48
f 1/63/58 62/64/59 47/24/24 45/65/60
f 47/24/24 22/25/20 38/45/19 45/65/60
f 1/63/58 45/65/60 38/45/19 43/44/43
f 5/50/48 21/6/6 50/5/5 28/33/32
f 47/24/24 62/64/59 31/66/61 21/6/6
f 21/6/6 31/66/61 49/53/50 35/4/4
f 49/53/50 4/2/2 67/1/1 35/4/4
f 50/5/5 67/1/1 60/48/46 41/32/31
f 28/33/32 41/32/31 60/48/46 51/28/27
f 25/27/26 34/57/52 28/33/32 51/28/27
f 17/26/25 51/28/27 60/48/46 19/67/62
f 8/68/63 15/21/21 17/26/25 19/67/62
f 19/67/62 60/48/46 10/3/3 8/68/63
f 12/16/16 15/21/21 8/68/63 65/17/17
f 65/17/17 8/68/63 10/3/3 63/69/64
f 4/2/2 44/70/65 63/69/64 10/3/3
f 4/2/2 56/54/51 54/71/66 44/70/65
f 54/71/66 24/12/12 63/69/64 44/70/65
f 62/64/59 1/63/58 54/71/66 56/54/51
f 31/66/61 62/64/59 56/54/51 49/53/50
f 13/39/38 29/13/13 33/35/34 57/34/33
f 29/13/13 7/49/47 55/36/35 33/35/34
f 40/37/36 26/72/67 6/15/15 39/14/14
f 7/49/47 29/13/13 6/15/15 26/72/67
f 59/42/41 46/61/56 16/22/22 23/31/30
f 39/14/14 29/13/13 13/39/38 23/31/30
f 15/21/21 16/22/22 46/61/56 36/60/55
f 20/10/10 53/23/23 40/37/36 48/11/11
f 53/23/23 3/73/42 38/19/19 55/36/35
f 1/63/58 43/44/43 24/12/12 54/71/66
f 63/69/64 24/12/12 48/11/11 65/17/17
f 53/74/23 24/12/12 43/44/43 3/43/42
f 37/18/18 57/34/33 55/36/35 38/19/19
f 40/37/36 53/23/23 7/49/47 26/72/67
f 57/34/33 37/18/18 18/62/57 9/38/37
f 42/47/45 18/62/57 37/18/18 22/20/20
f 36/60/55 2/40/39 11/29/28 30/59/54
f 10 44
